<svg width="35" height="38" viewBox="0 0 35 38" fill="none" xmlns="http://www.w3.org/2000/svg">
<path d="M7.87286 9.3989C7.87286 10.5035 8.76829 11.3989 9.87286 11.3989C10.9774 11.3989 11.8729 10.5035 11.8729 9.3989H7.87286ZM11.8729 2.25128C11.8729 1.14671 10.9774 0.251282 9.87286 0.251282C8.76829 0.251282 7.87286 1.14671 7.87286 2.25128H11.8729ZM22.8729 9.3989C22.8729 10.5035 23.7683 11.3989 24.8729 11.3989C25.9774 11.3989 26.8729 10.5035 26.8729 9.3989H22.8729ZM26.8729 2.25128C26.8729 1.14671 25.9774 0.251282 24.8729 0.251282C23.7683 0.251282 22.8729 1.14671 22.8729 2.25128H26.8729ZM30.3729 11.7457V29.7457H34.3729V11.7457H30.3729ZM26.3729 33.7457H8.37286V37.7457H26.3729V33.7457ZM4.37286 29.7457V11.7457H0.372864V29.7457H4.37286ZM8.37286 7.74567H9.87286V3.74567H8.37286V7.74567ZM9.87286 7.74567H17.3729V3.74567H9.87286V7.74567ZM7.87286 5.74567V9.3989H11.8729V5.74567H7.87286ZM11.8729 9.3989V5.82509H7.87286V9.3989H11.8729ZM11.8729 5.82509V2.25128H7.87286V5.82509H11.8729ZM17.3729 7.74567H24.8729V3.74567H17.3729V7.74567ZM24.8729 7.74567H26.3729V3.74567H24.8729V7.74567ZM22.8729 5.74567V9.3989H26.8729V5.74567H22.8729ZM26.8729 9.3989V2.25128H22.8729V9.3989H26.8729ZM7.87286 2.25128V5.74567H11.8729V2.25128H7.87286ZM8.37286 33.7457C6.16372 33.7457 4.37286 31.9548 4.37286 29.7457H0.372864C0.372864 34.1639 3.95459 37.7457 8.37286 37.7457V33.7457ZM30.3729 29.7457C30.3729 31.9548 28.582 33.7457 26.3729 33.7457V37.7457C30.7911 37.7457 34.3729 34.1639 34.3729 29.7457H30.3729ZM34.3729 11.7457C34.3729 7.32739 30.7911 3.74567 26.3729 3.74567V7.74567C28.582 7.74567 30.3729 9.53653 30.3729 11.7457H34.3729ZM4.37286 11.7457C4.37286 9.53653 6.16372 7.74567 8.37286 7.74567V3.74567C3.95459 3.74567 0.372864 7.32739 0.372864 11.7457H4.37286Z" fill="black"/>
</svg>
