<svg width="27" height="30" viewBox="0 0 27 30" fill="none" xmlns="http://www.w3.org/2000/svg">
<path d="M24.9044 28.1959L1.71565 28.196C1.84758 27.1762 2.11376 26.176 2.50894 25.222C3.09647 23.8036 3.95762 22.5148 5.04323 21.4292C6.12884 20.3436 7.41765 19.4824 8.83607 18.8949C10.2545 18.3073 11.7747 18.0049 13.31 18.0049C14.8453 18.0049 16.3656 18.3073 17.784 18.8949C19.2024 19.4824 20.4912 20.3435 21.5768 21.4292C22.6624 22.5148 23.5236 23.8036 24.1111 25.222C24.5063 26.176 24.7725 27.1762 24.9044 28.1959ZM19.5453 7.76962C19.5453 11.2133 16.7537 14.0049 13.31 14.0049C9.86635 14.0049 7.07471 11.2133 7.07471 7.76962C7.07471 4.32595 9.86635 1.5343 13.31 1.5343C16.7537 1.5343 19.5453 4.32595 19.5453 7.76962Z" stroke="white" stroke-width="3"/>
</svg>
