<svg width="25" height="25" viewBox="0 0 25 25" fill="none" xmlns="http://www.w3.org/2000/svg">
<path d="M2.37524 2.48904H8.37524C8.65139 2.48904 8.87524 2.7129 8.87524 2.98904V8.98904C8.87524 9.26519 8.65139 9.48904 8.37524 9.48904H2.37524C2.0991 9.48904 1.87524 9.26519 1.87524 8.98904V2.98904C1.87524 2.7129 2.0991 2.48904 2.37524 2.48904ZM16.3752 2.48904H22.3752C22.6514 2.48904 22.8752 2.7129 22.8752 2.98904V8.98904C22.8752 9.26519 22.6514 9.48904 22.3752 9.48904H16.3752C16.0991 9.48904 15.8752 9.26519 15.8752 8.98904V2.98904C15.8752 2.7129 16.0991 2.48904 16.3752 2.48904ZM2.37524 16.489H8.37524C8.65139 16.489 8.87524 16.7129 8.87524 16.989V22.989C8.87524 23.2652 8.65139 23.489 8.37524 23.489H2.37524C2.0991 23.489 1.87524 23.2652 1.87524 22.989V16.989C1.87524 16.7129 2.0991 16.489 2.37524 16.489ZM16.3752 16.489H22.3752C22.6514 16.489 22.8752 16.7129 22.8752 16.989V22.989C22.8752 23.2652 22.6514 23.489 22.3752 23.489H16.3752C16.0991 23.489 15.8752 23.2652 15.8752 22.989V16.989C15.8752 16.7129 16.0991 16.489 16.3752 16.489Z" stroke="white" stroke-width="3"/>
</svg>
