<svg width="101" height="101" viewBox="0 0 101 101" fill="none" xmlns="http://www.w3.org/2000/svg">
<rect x="0.328369" y="0.180313" width="100" height="100" rx="24" fill="#4459F7"/>
<path d="M33.3284 30.9812C33.3284 32.0857 34.2238 32.9812 35.3284 32.9812C36.4329 32.9812 37.3284 32.0857 37.3284 30.9812H33.3284ZM37.3284 16.6859C37.3284 15.5814 36.4329 14.6859 35.3284 14.6859C34.2238 14.6859 33.3284 15.5814 33.3284 16.6859H37.3284ZM63.3284 30.9812C63.3284 32.0857 64.2238 32.9812 65.3284 32.9812C66.4329 32.9812 67.3284 32.0857 67.3284 30.9812H63.3284ZM67.3284 16.6859C67.3284 15.5814 66.4329 14.6859 65.3284 14.6859C64.2238 14.6859 63.3284 15.5814 63.3284 16.6859H67.3284ZM78.3284 38.6747V65.6747H82.3284V38.6747H78.3284ZM62.3284 81.6747H38.3284V85.6747H62.3284V81.6747ZM22.3284 65.6747V38.6747H18.3284V65.6747H22.3284ZM35.3284 25.6747H50.3284V21.6747H35.3284V25.6747ZM33.3284 23.6747V30.9812H37.3284V23.6747H33.3284ZM37.3284 30.9812V23.8335H33.3284V30.9812H37.3284ZM37.3284 23.8335V16.6859H33.3284V23.8335H37.3284ZM50.3284 25.6747H65.3284V21.6747H50.3284V25.6747ZM63.3284 23.6747V30.9812H67.3284V23.6747H63.3284ZM67.3284 30.9812V16.6859H63.3284V30.9812H67.3284ZM33.3284 16.6859V23.6747H37.3284V16.6859H33.3284ZM38.3284 81.6747C29.4918 81.6747 22.3284 74.5113 22.3284 65.6747H18.3284C18.3284 76.7204 27.2827 85.6747 38.3284 85.6747V81.6747ZM78.3284 65.6747C78.3284 74.5113 71.1649 81.6747 62.3284 81.6747V85.6747C73.3741 85.6747 82.3284 76.7204 82.3284 65.6747H78.3284ZM82.3284 38.6747C82.3284 29.2859 74.7172 21.6747 65.3284 21.6747V25.6747C72.5081 25.6747 78.3284 31.495 78.3284 38.6747H82.3284ZM22.3284 38.6747C22.3284 31.495 28.1487 25.6747 35.3284 25.6747V21.6747C25.9395 21.6747 18.3284 29.2859 18.3284 38.6747H22.3284Z" fill="white"/>
<path d="M44.4515 64.4502L43.3179 65.4326L44.3561 66.6305L45.4949 65.5279L44.4515 64.4502ZM35.0584 55.9025L43.3179 65.4326L45.585 63.4678L37.3255 53.9377L35.0584 55.9025ZM45.4949 65.5279L65.5082 46.1499L63.4214 43.9946L43.4081 63.3726L45.4949 65.5279Z" fill="white"/>
</svg>
